<svg width="25" height="25" viewBox="0 0 25 25" fill="none" xmlns="http://www.w3.org/2000/svg">
<path d="M13.541 2.47573C13.541 2.00344 13.139 1.60144 12.6667 1.60144C12.1944 1.60144 11.7928 2.00344 11.7928 2.47573V4.5843C11.7928 5.05658 12.1948 5.45858 12.6671 5.45858C13.1386 5.45858 13.5406 5.05658 13.5406 4.5843L13.541 2.47573ZM17.6287 6.30244C17.2974 6.64401 17.2974 7.20673 17.6287 7.53801C17.9703 7.87958 18.5227 7.88944 18.8741 7.53801L20.3711 6.04144C20.5354 5.87571 20.6275 5.65183 20.6275 5.41851C20.6275 5.18519 20.5354 4.96131 20.3711 4.79558C20.0394 4.4643 19.4771 4.4643 19.1356 4.79558L17.6287 6.30244ZM6.45927 7.53801C6.79055 7.87958 7.35327 7.87958 7.69441 7.53801C8.02613 7.21658 8.02613 6.63373 7.7047 6.30244L6.20813 4.79558C5.8867 4.47415 5.31413 4.4643 4.97255 4.79558C4.64084 5.1273 4.64084 5.69987 4.96227 6.03116L6.45927 7.53801ZM12.6667 7.3773C9.86427 7.3773 7.54398 9.69758 7.54398 12.5C7.54398 15.3024 9.86384 17.633 12.6667 17.633C15.4593 17.633 17.7796 15.3024 17.7796 12.5C17.7796 9.69758 15.4593 7.3773 12.6667 7.3773ZM12.6667 8.91415C14.6253 8.91415 16.2526 10.5414 16.2526 12.5C16.2526 14.4586 14.6253 16.0957 12.6667 16.0957C10.6978 16.0957 9.07098 14.4586 9.07098 12.5C9.07098 10.5414 10.6978 8.91415 12.6667 8.91415ZM22.661 13.3739C23.1333 13.3739 23.5353 12.9723 23.5353 12.5C23.5353 12.0277 23.1333 11.6257 22.661 11.6257H20.5618C20.0896 11.6257 19.6876 12.0277 19.6876 12.5C19.6876 12.9723 20.0896 13.3739 20.5618 13.3739H22.661ZM2.67241 11.6262C2.20013 11.6262 1.79813 12.0277 1.79813 12.5C1.79813 12.9723 2.20013 13.3739 2.67241 13.3739H4.77155C5.24384 13.3739 5.64584 12.9723 5.64584 12.5C5.64584 12.0277 5.24384 11.6257 4.77155 11.6257L2.67241 11.6262ZM18.8638 17.4714C18.6978 17.3118 18.4764 17.2227 18.2461 17.2227C18.0157 17.2227 17.7943 17.3118 17.6283 17.4714C17.297 17.8032 17.297 18.3659 17.6283 18.707L19.1356 20.2143C19.4771 20.5456 20.0398 20.5357 20.3711 20.2044C20.7127 19.8727 20.7127 19.3104 20.3711 18.9689L18.8638 17.4714ZM4.96227 18.9586C4.6207 19.2899 4.6207 19.8624 4.95198 20.1937C5.2837 20.5254 5.85627 20.5353 6.19741 20.204L7.69398 18.707C8.0257 18.3757 8.0257 17.813 7.70427 17.4719C7.37255 17.1402 6.79998 17.1402 6.45884 17.4719L4.96227 18.9586ZM13.5401 20.4149C13.5401 19.9426 13.1386 19.5406 12.6663 19.5406C12.194 19.5406 11.7924 19.9426 11.7924 20.4149V22.5243C11.7924 22.9962 12.1944 23.3982 12.6667 23.3982C13.1381 23.3982 13.5401 22.9962 13.5401 22.5239V20.4149Z" fill="#222222"/>
</svg>
