<svg width="25" height="25" viewBox="0 0 25 25" fill="none" xmlns="http://www.w3.org/2000/svg">
<path fill-rule="evenodd" clip-rule="evenodd" d="M2.66758 9.95954C2.66801 9.86118 2.68785 9.76388 2.72598 9.6732C2.7641 9.58253 2.81975 9.50028 2.88974 9.43116C2.95972 9.36205 3.04267 9.30743 3.13381 9.27044C3.22496 9.23346 3.3225 9.21484 3.42086 9.21564L10.9219 9.27404C11.3362 9.27723 11.6915 9.61483 11.7156 10.028L11.764 10.8594L14.2653 6.88511C14.317 6.80197 14.3849 6.73009 14.465 6.67376C14.545 6.61743 14.6356 6.57781 14.7314 6.55726C14.8271 6.53671 14.926 6.53565 15.0221 6.55414C15.1182 6.57263 15.2097 6.61029 15.2909 6.66489L21.5718 10.8245C21.7381 10.9345 21.8539 11.106 21.8939 11.3013C21.9339 11.4966 21.8947 11.6998 21.7851 11.8663L17.682 18.1013C17.454 18.4477 16.9839 18.5513 16.6323 18.3328L11.764 15.308V17.7914C11.764 18.2057 11.4281 18.5414 11.0147 18.5414H3.38008C3.28175 18.5415 3.18438 18.5222 3.09356 18.4845C3.00274 18.4468 2.92028 18.3915 2.85092 18.3218C2.78156 18.2521 2.72668 18.1694 2.68944 18.0784C2.6522 17.9874 2.63333 17.8899 2.63392 17.7916L2.66758 9.95954ZM3.77646 10.5871L3.75874 17.3194L10.7081 17.3262L10.7049 14.5344L10.1467 14.1482C9.97708 14.031 9.92402 13.791 10.0288 13.6129L10.7396 12.4058L10.696 10.5543L3.77646 10.5871ZM15.0037 7.90576L11.3959 13.5111L17.1114 17.1036L20.6375 11.6155L15.0037 7.90576Z" fill="#008ECC"/>
<path d="M13.2709 13.9062C13.6851 13.9062 14.0209 13.5705 14.0209 13.1562C14.0209 12.742 13.6851 12.4062 13.2709 12.4062C12.8567 12.4062 12.5209 12.742 12.5209 13.1562C12.5209 13.5705 12.8567 13.9062 13.2709 13.9062Z" fill="#008ECC"/>
<path d="M15.8021 13.4375C16.2163 13.4375 16.5521 13.1017 16.5521 12.6875C16.5521 12.2733 16.2163 11.9375 15.8021 11.9375C15.3879 11.9375 15.0521 12.2733 15.0521 12.6875C15.0521 13.1017 15.3879 13.4375 15.8021 13.4375Z" fill="#008ECC"/>
<path d="M18.4271 12.9688C18.8413 12.9688 19.1771 12.633 19.1771 12.2188C19.1771 11.8045 18.8413 11.4688 18.4271 11.4688C18.0129 11.4688 17.6771 11.8045 17.6771 12.2188C17.6771 12.633 18.0129 12.9688 18.4271 12.9688Z" fill="#008ECC"/>
<path d="M5.02087 12.875C5.43509 12.875 5.77087 12.5392 5.77087 12.125C5.77087 11.7108 5.43509 11.375 5.02087 11.375C4.60666 11.375 4.27087 11.7108 4.27087 12.125C4.27087 12.5392 4.60666 12.875 5.02087 12.875Z" fill="#008ECC"/>
<path d="M7.17712 14.8438C7.59134 14.8438 7.92712 14.508 7.92712 14.0938C7.92712 13.6795 7.59134 13.3438 7.17712 13.3438C6.76291 13.3438 6.42712 13.6795 6.42712 14.0938C6.42712 14.508 6.76291 14.8438 7.17712 14.8438Z" fill="#008ECC"/>
<path d="M9.23962 12.7812C9.65384 12.7812 9.98962 12.4455 9.98962 12.0312C9.98962 11.617 9.65384 11.2812 9.23962 11.2812C8.82541 11.2812 8.48962 11.617 8.48962 12.0312C8.48962 12.4455 8.82541 12.7812 9.23962 12.7812Z" fill="#008ECC"/>
<path d="M5.11462 16.7188C5.52884 16.7188 5.86462 16.383 5.86462 15.9688C5.86462 15.5545 5.52884 15.2188 5.11462 15.2188C4.70041 15.2188 4.36462 15.5545 4.36462 15.9688C4.36462 16.383 4.70041 16.7188 5.11462 16.7188Z" fill="#008ECC"/>
<path d="M9.23962 16.7188C9.65384 16.7188 9.98962 16.383 9.98962 15.9688C9.98962 15.5545 9.65384 15.2188 9.23962 15.2188C8.82541 15.2188 8.48962 15.5545 8.48962 15.9688C8.48962 16.383 8.82541 16.7188 9.23962 16.7188Z" fill="#008ECC"/>
</svg>
