<svg width="130" height="33" viewBox="0 0 130 33" fill="none" xmlns="http://www.w3.org/2000/svg">
<path d="M24.8695 1.804V31.7848H18.8561V19.0279H6.01334V31.7848H0V1.804H6.01334V14.1314H18.8561V1.804H24.8695Z" fill="#222222"/>
<path d="M29.2419 19.8011C29.2419 17.3957 29.7144 15.2624 30.6593 13.4012C31.6329 11.5399 32.9358 10.1081 34.568 9.10592C36.2288 8.1037 38.0758 7.60259 40.1089 7.60259C41.8842 7.60259 43.4305 7.96052 44.7477 8.6764C46.0936 9.39227 47.1674 10.2943 47.9692 11.3824V7.98916H54.0255V31.7848H47.9692V28.3057C47.196 29.4224 46.1222 30.3531 44.7477 31.0976C43.4019 31.8135 41.8413 32.1714 40.0659 32.1714C38.0615 32.1714 36.2288 31.656 34.568 30.6251C32.9358 29.5942 31.6329 28.1482 30.6593 26.2869C29.7144 24.397 29.2419 22.2351 29.2419 19.8011ZM47.9692 19.887C47.9692 18.4266 47.6828 17.181 47.1101 16.1501C46.5374 15.0906 45.7643 14.2889 44.7907 13.7448C43.8171 13.1721 42.7719 12.8857 41.6552 12.8857C40.5384 12.8857 39.5075 13.1578 38.5626 13.7018C37.6176 14.2459 36.8445 15.0477 36.2432 16.1072C35.6705 17.138 35.3841 18.3693 35.3841 19.8011C35.3841 21.2328 35.6705 22.4928 36.2432 23.5809C36.8445 24.6404 37.6176 25.4565 38.5626 26.0292C39.5362 26.6019 40.567 26.8882 41.6552 26.8882C42.7719 26.8882 43.8171 26.6162 44.7907 26.0721C45.7643 25.4994 46.5374 24.6977 47.1101 23.6668C47.6828 22.6073 47.9692 21.3474 47.9692 19.887Z" fill="#222222"/>
<path d="M92.8861 7.98916L85.9277 31.7848H79.4419L75.1037 15.1622L70.7655 31.7848H64.2368L57.2355 7.98916H63.3348L67.5441 26.1151L72.0971 7.98916H78.454L82.9211 26.0721L87.1304 7.98916H92.8861Z" fill="#222222"/>
<path d="M102.153 0V31.7848H96.1397V0H102.153Z" fill="#222222"/>
<path d="M122.183 31.7848L114.108 21.648V31.7848H108.094V0H114.108V18.083L122.097 7.98916H129.914L119.434 19.9299L130 31.7848H122.183Z" fill="#222222"/>
</svg>
