<svg width="14" height="13" viewBox="0 0 14 13" fill="none" xmlns="http://www.w3.org/2000/svg">
<path d="M7.10773 3.69116C8.83038 3.69116 10.2523 5.11304 10.2523 6.83569C10.2523 8.58569 8.83038 9.98022 7.10773 9.98022C5.35773 9.98022 3.9632 8.58569 3.9632 6.83569C3.9632 5.11304 5.35773 3.69116 7.10773 3.69116ZM7.10773 8.88647C8.22882 8.88647 9.13116 7.98413 9.13116 6.83569C9.13116 5.7146 8.22882 4.81226 7.10773 4.81226C5.95929 4.81226 5.05695 5.7146 5.05695 6.83569C5.05695 7.98413 5.98663 8.88647 7.10773 8.88647ZM11.0999 3.58179C11.0999 3.99194 10.7718 4.32007 10.3616 4.32007C9.95148 4.32007 9.62335 3.99194 9.62335 3.58179C9.62335 3.17163 9.95148 2.84351 10.3616 2.84351C10.7718 2.84351 11.0999 3.17163 11.0999 3.58179ZM13.178 4.32007C13.2327 5.33179 13.2327 8.36694 13.178 9.37866C13.1234 10.363 12.9046 11.2107 12.1937 11.949C11.4827 12.6599 10.6077 12.8787 9.62335 12.9333C8.61163 12.988 5.57648 12.988 4.56476 12.9333C3.58038 12.8787 2.73273 12.6599 1.99445 11.949C1.28351 11.2107 1.06476 10.363 1.01007 9.37866C0.955383 8.36694 0.955383 5.33179 1.01007 4.32007C1.06476 3.33569 1.28351 2.46069 1.99445 1.74976C2.73273 1.03882 3.58038 0.820068 4.56476 0.765381C5.57648 0.710693 8.61163 0.710693 9.62335 0.765381C10.6077 0.820068 11.4827 1.03882 12.1937 1.74976C12.9046 2.46069 13.1234 3.33569 13.178 4.32007ZM11.8655 10.4451C12.1937 9.6521 12.1116 7.73804 12.1116 6.83569C12.1116 5.96069 12.1937 4.04663 11.8655 3.22632C11.6468 2.70679 11.2366 2.26929 10.7171 2.07788C9.89679 1.74976 7.98273 1.83179 7.10773 1.83179C6.20538 1.83179 4.29132 1.74976 3.49835 2.07788C2.95148 2.29663 2.54132 2.70679 2.32257 3.22632C1.99445 4.04663 2.07648 5.96069 2.07648 6.83569C2.07648 7.73804 1.99445 9.6521 2.32257 10.4451C2.54132 10.9919 2.95148 11.4021 3.49835 11.6208C4.29132 11.949 6.20538 11.8669 7.10773 11.8669C7.98273 11.8669 9.89679 11.949 10.7171 11.6208C11.2366 11.4021 11.6741 10.9919 11.8655 10.4451Z" fill="#222222"/>
</svg>
