<svg width="25" height="24" viewBox="0 0 25 24" fill="none" xmlns="http://www.w3.org/2000/svg">
<path d="M12.9999 4C17.4183 4 20.9999 7.5816 20.9999 12C20.9999 16.4184 17.4183 20 12.9999 20C8.58154 20 4.99994 16.4184 4.99994 12C4.99994 7.5816 8.58154 4 12.9999 4ZM12.9999 5.6C11.3026 5.6 9.67469 6.27428 8.47446 7.47452C7.27422 8.67475 6.59994 10.3026 6.59994 12C6.59994 13.6974 7.27422 15.3253 8.47446 16.5255C9.67469 17.7257 11.3026 18.4 12.9999 18.4C14.6973 18.4 16.3252 17.7257 17.5254 16.5255C18.7257 15.3253 19.3999 13.6974 19.3999 12C19.3999 10.3026 18.7257 8.67475 17.5254 7.47452C16.3252 6.27428 14.6973 5.6 12.9999 5.6ZM12.9999 7.2C13.1959 7.20003 13.385 7.27196 13.5314 7.40217C13.6779 7.53238 13.7714 7.7118 13.7943 7.9064L13.7999 8V11.6688L15.9655 13.8344C16.109 13.9784 16.1923 14.1715 16.1985 14.3747C16.2047 14.5779 16.1334 14.7758 15.9989 14.9282C15.8645 15.0807 15.6771 15.1762 15.4748 15.1955C15.2724 15.2148 15.0703 15.1563 14.9095 15.032L14.8343 14.9656L12.4343 12.5656C12.31 12.4412 12.2301 12.2792 12.2071 12.1048L12.1999 12V8C12.1999 7.78783 12.2842 7.58434 12.4343 7.43431C12.5843 7.28429 12.7878 7.2 12.9999 7.2Z" fill="#008ECC"/>
</svg>
