<svg width="12" height="14" viewBox="0 0 12 14" fill="none" xmlns="http://www.w3.org/2000/svg">
<path d="M6.30585 0.0270996C8.87616 0.0270996 11.2277 1.80444 11.2277 4.51147C11.2277 7.05444 9.91522 9.89819 7.01678 9.89819C6.30585 9.89819 5.45819 9.54272 5.10272 8.91382C4.50116 11.3748 4.5285 11.7576 3.16132 13.6443C3.0246 13.699 3.05194 13.699 2.96991 13.5896C2.91522 13.0701 2.86053 12.5779 2.86053 12.0583C2.86053 10.3904 3.62616 7.95679 4.00897 6.34351C3.79022 5.90601 3.73553 5.41382 3.73553 4.94897C3.73553 2.76147 6.30585 2.43335 6.30585 4.23804C6.30585 5.30444 5.56757 6.31616 5.56757 7.35522C5.56757 8.03882 6.16913 8.53101 6.85272 8.53101C8.73944 8.53101 9.31366 5.82397 9.31366 4.37476C9.31366 2.43335 7.94647 1.36694 6.05975 1.36694C3.8996 1.36694 2.23163 2.92554 2.23163 5.11304C2.23163 6.17944 2.88788 6.72632 2.88788 6.97241C2.88788 7.19116 2.72382 7.92944 2.45038 7.92944C1.79413 7.92944 0.727722 6.83569 0.727722 4.92163C0.727722 1.88647 3.48944 0.0270996 6.30585 0.0270996Z" fill="#222222"/>
</svg>
