<svg width="17" height="17" viewBox="0 0 17 17" fill="none" xmlns="http://www.w3.org/2000/svg">
<path d="M15.7813 13.8438C16.0625 14.1562 16.0625 14.625 15.75 14.9062L14.875 15.7812C14.5938 16.0938 14.125 16.0938 13.8125 15.7812L10.7188 12.6875C10.5625 12.5312 10.5 12.3438 10.5 12.1562V11.625C9.37503 12.5 8.00003 13 6.50003 13C2.90628 13 3.43323e-05 10.0938 3.43323e-05 6.5C3.43323e-05 2.9375 2.90628 0 6.50003 0C10.0625 0 13 2.9375 13 6.5C13 8.03125 12.4688 9.40625 11.625 10.5H12.125C12.3125 10.5 12.5 10.5938 12.6563 10.7188L15.7813 13.8438ZM6.50003 10.5C8.68753 10.5 10.5 8.71875 10.5 6.5C10.5 4.3125 8.68753 2.5 6.50003 2.5C4.28128 2.5 2.50003 4.3125 2.50003 6.5C2.50003 8.71875 4.28128 10.5 6.50003 10.5Z" fill="#008ECC"/>
</svg>
