<svg width="25" height="25" viewBox="0 0 25 25" fill="none" xmlns="http://www.w3.org/2000/svg">
<path fill-rule="evenodd" clip-rule="evenodd" d="M21.0327 2.624C20.7047 1.792 19.5287 1.792 19.2027 2.624L18.7737 3.714L17.6897 4.143C16.8597 4.471 16.8597 5.647 17.6897 5.975L18.7737 6.405L19.2017 7.494C19.5287 8.326 20.7047 8.326 21.0317 7.494L21.4607 6.404L22.5447 5.975C23.3747 5.647 23.3747 4.471 22.5447 4.143L21.4607 3.713L21.0327 2.624ZM20.1167 3.03L20.5317 4.085C20.6317 4.339 20.8317 4.54 21.0857 4.641L22.1427 5.059L21.0857 5.478C20.9601 5.52738 20.8461 5.60217 20.7507 5.69767C20.6554 5.79317 20.5808 5.90733 20.5317 6.033L20.1167 7.088L19.7027 6.033C19.6535 5.90733 19.5789 5.79317 19.4836 5.69767C19.3883 5.60217 19.2743 5.52738 19.1487 5.478L18.0917 5.059L19.1487 4.641C19.2743 4.5915 19.3884 4.51656 19.4838 4.42088C19.5791 4.3252 19.6536 4.21085 19.7027 4.085L20.1167 3.03ZM17.1647 8.447C16.8377 7.614 15.6617 7.614 15.3347 8.447L15.1797 8.84L14.7897 8.995C13.9597 9.323 13.9597 10.499 14.7897 10.828L15.1797 10.982L15.3347 11.376C15.6617 12.208 16.8377 12.208 17.1647 11.376L17.3197 10.982L17.7097 10.828C18.5397 10.499 18.5397 9.323 17.7097 8.995L17.3197 8.84L17.1647 8.447ZM16.2497 8.852L16.3907 9.212C16.4907 9.465 16.6907 9.667 16.9447 9.767L17.3087 9.911L16.9447 10.055C16.819 10.1045 16.7049 10.1794 16.6096 10.2751C16.5142 10.3708 16.4397 10.4851 16.3907 10.611L16.2497 10.971L16.1087 10.611C16.0596 10.4851 15.9851 10.3708 15.8898 10.2751C15.7944 10.1794 15.6803 10.1045 15.5547 10.055L15.1907 9.911L15.5547 9.767C15.6803 9.71762 15.7943 9.64283 15.8896 9.54733C15.9849 9.45183 16.0595 9.33767 16.1087 9.212L16.2497 8.852Z" fill="#222222"/>
<path fill-rule="evenodd" clip-rule="evenodd" d="M11.6837 3.302C9.94794 3.48759 8.30013 4.16056 6.9307 5.24312C5.56128 6.32569 4.52614 7.77366 3.94491 9.4197C3.36368 11.0657 3.26009 12.8427 3.64611 14.5451C4.03214 16.2475 4.89202 17.806 6.12637 19.0403C7.36073 20.2747 8.91918 21.1345 10.6216 21.5206C12.324 21.9066 14.1009 21.803 15.747 21.2218C17.393 20.6406 18.841 19.6054 19.9236 18.236C21.0061 16.8666 21.6791 15.2188 21.8647 13.483C21.2311 14.2881 20.434 14.9497 19.5261 15.4243C18.6182 15.8989 17.6199 16.1757 16.5972 16.2364C15.5746 16.2972 14.5506 16.1404 13.5929 15.7766C12.6352 15.4128 11.7654 14.8501 11.041 14.1257C10.3166 13.4013 9.75388 12.5315 9.39006 11.5738C9.02624 10.6161 8.86953 9.59213 8.93025 8.56944C8.99098 7.54674 9.26777 6.54852 9.74237 5.64059C10.217 4.73265 10.8786 3.93561 11.6837 3.302ZM1.91669 12.5C1.91669 6.563 6.72969 1.75 12.6667 1.75C13.3837 1.75 13.7417 2.321 13.8037 2.776C13.8627 3.214 13.7007 3.771 13.1977 4.075C12.4506 4.52586 11.816 5.14082 11.3418 5.87331C10.8677 6.60579 10.5664 7.43658 10.4609 8.30274C10.3554 9.1689 10.4485 10.0477 10.7329 10.8726C11.0174 11.6975 11.4859 12.4468 12.1029 13.0638C12.7199 13.6808 13.4692 14.1493 14.2941 14.4338C15.119 14.7182 15.9978 14.8112 16.8639 14.7058C17.7301 14.6003 18.5609 14.299 19.2934 13.8249C20.0259 13.3507 20.6408 12.7161 21.0917 11.969C21.3957 11.466 21.9527 11.304 22.3907 11.363C22.8457 11.425 23.4167 11.783 23.4167 12.5C23.4167 18.437 18.6037 23.25 12.6667 23.25C6.72969 23.25 1.91669 18.437 1.91669 12.5Z" fill="#222222"/>
</svg>
