<svg width="25" height="25" viewBox="0 0 25 25" fill="none" xmlns="http://www.w3.org/2000/svg">
<path fill-rule="evenodd" clip-rule="evenodd" d="M11.6837 3.302C9.41348 3.54463 7.31323 4.61827 5.78704 6.31633C4.26086 8.01438 3.41658 10.2169 3.41668 12.5C3.41668 13.645 3.62468 14.74 4.00368 15.75H13.5157C12.3278 15.2827 11.2843 14.5102 10.4905 13.5105C9.69677 12.5108 9.18091 11.3194 8.99505 10.0565C8.80918 8.79362 8.95991 7.50405 9.43199 6.31807C9.90407 5.13209 10.6808 4.0917 11.6837 3.302ZM18.8177 15.75H21.3297C21.6033 15.0201 21.7831 14.2583 21.8647 13.483C21.0678 14.4953 20.0163 15.2777 18.8177 15.75ZM22.9047 15.788C23.2367 14.751 23.4167 13.646 23.4167 12.5C23.4167 11.783 22.8457 11.425 22.3907 11.363C21.9527 11.304 21.3957 11.466 21.0917 11.969C20.6408 12.7161 20.0259 13.3507 19.2934 13.8249C18.5609 14.299 17.7301 14.6003 16.8639 14.7058C15.9978 14.8112 15.119 14.7182 14.2941 14.4338C13.4692 14.1493 12.7199 13.6808 12.1029 13.0638C11.4859 12.4468 11.0174 11.6975 10.7329 10.8726C10.4484 10.0477 10.3554 9.1689 10.4609 8.30274C10.5664 7.43658 10.8677 6.60579 11.3418 5.87331C11.816 5.14082 12.4506 4.52586 13.1977 4.075C13.7007 3.771 13.8627 3.214 13.8037 2.776C13.7417 2.321 13.3837 1.75 12.6667 1.75C6.72968 1.75 1.91668 6.563 1.91668 12.5C1.91668 13.646 2.09668 14.751 2.42868 15.788C2.2593 15.8441 2.11545 15.9587 2.02297 16.1113C1.9305 16.2639 1.89545 16.4444 1.92411 16.6205C1.95278 16.7966 2.04329 16.9567 2.17939 17.0721C2.31549 17.1875 2.48826 17.2505 2.66668 17.25H22.6667C22.8451 17.2505 23.0179 17.1875 23.154 17.0721C23.2901 16.9567 23.3806 16.7966 23.4092 16.6205C23.4379 16.4444 23.4029 16.2639 23.3104 16.1113C23.2179 15.9587 23.0741 15.8441 22.9047 15.788ZM4.91668 19.5C4.91668 19.3011 4.99569 19.1103 5.13635 18.9697C5.277 18.829 5.46776 18.75 5.66668 18.75H19.6667C19.8656 18.75 20.0564 18.829 20.197 18.9697C20.3377 19.1103 20.4167 19.3011 20.4167 19.5C20.4167 19.6989 20.3377 19.8897 20.197 20.0303C20.0564 20.171 19.8656 20.25 19.6667 20.25H5.66668C5.46776 20.25 5.277 20.171 5.13635 20.0303C4.99569 19.8897 4.91668 19.6989 4.91668 19.5ZM7.91668 22.5C7.91668 22.3011 7.99569 22.1103 8.13635 21.9697C8.277 21.829 8.46776 21.75 8.66668 21.75H16.6667C16.8656 21.75 17.0564 21.829 17.197 21.9697C17.3377 22.1103 17.4167 22.3011 17.4167 22.5C17.4167 22.6989 17.3377 22.8897 17.197 23.0303C17.0564 23.171 16.8656 23.25 16.6667 23.25H8.66668C8.46776 23.25 8.277 23.171 8.13635 23.0303C7.99569 22.8897 7.91668 22.6989 7.91668 22.5Z" fill="#222222"/>
<path fill-rule="evenodd" clip-rule="evenodd" d="M21.0327 2.624C20.7047 1.792 19.5287 1.792 19.2027 2.624L18.7737 3.714L17.6897 4.143C16.8597 4.471 16.8597 5.647 17.6897 5.975L18.7737 6.405L19.2017 7.494C19.5287 8.326 20.7047 8.326 21.0317 7.494L21.4607 6.404L22.5447 5.975C23.3747 5.647 23.3747 4.471 22.5447 4.143L21.4607 3.713L21.0327 2.624ZM20.1167 3.03L20.5317 4.085C20.6317 4.339 20.8317 4.54 21.0857 4.641L22.1427 5.059L21.0857 5.478C20.9601 5.52738 20.8461 5.60217 20.7507 5.69767C20.6554 5.79317 20.5808 5.90733 20.5317 6.033L20.1167 7.088L19.7027 6.033C19.6535 5.90733 19.5789 5.79317 19.4836 5.69767C19.3883 5.60217 19.2743 5.52738 19.1487 5.478L18.0917 5.059L19.1487 4.641C19.2743 4.5915 19.3884 4.51656 19.4838 4.42088C19.5791 4.3252 19.6536 4.21085 19.7027 4.085L20.1167 3.03ZM17.1647 8.447C16.8377 7.614 15.6617 7.614 15.3347 8.447L15.1797 8.84L14.7897 8.995C13.9597 9.323 13.9597 10.499 14.7897 10.828L15.1797 10.982L15.3347 11.376C15.6617 12.208 16.8377 12.208 17.1647 11.376L17.3197 10.982L17.7097 10.828C18.5397 10.499 18.5397 9.323 17.7097 8.995L17.3197 8.84L17.1647 8.447ZM16.2497 8.852L16.3907 9.212C16.4907 9.465 16.6907 9.667 16.9447 9.767L17.3087 9.911L16.9447 10.055C16.819 10.1045 16.7049 10.1794 16.6096 10.2751C16.5142 10.3708 16.4397 10.4851 16.3907 10.611L16.2497 10.971L16.1087 10.611C16.0596 10.4851 15.9851 10.3708 15.8898 10.2751C15.7944 10.1794 15.6803 10.1045 15.5547 10.055L15.1907 9.911L15.5547 9.767C15.6803 9.71762 15.7943 9.64283 15.8896 9.54733C15.9849 9.45183 16.0595 9.33767 16.1087 9.212L16.2497 8.852Z" fill="#222222"/>
</svg>
