<svg width="24" height="25" viewBox="0 0 24 25" fill="none" xmlns="http://www.w3.org/2000/svg">
<path d="M8.50005 14.5C8.83157 14.5 9.14951 14.3683 9.38393 14.1339C9.61835 13.8995 9.75005 13.5815 9.75005 13.25C9.75005 12.9185 9.61835 12.6005 9.38393 12.3661C9.14951 12.1317 8.83157 12 8.50005 12C8.16853 12 7.85058 12.1317 7.61616 12.3661C7.38174 12.6005 7.25005 12.9185 7.25005 13.25C7.25005 13.5815 7.38174 13.8995 7.61616 14.1339C7.85058 14.3683 8.16853 14.5 8.50005 14.5ZM8.50005 18C8.83157 18 9.14951 17.8683 9.38393 17.6339C9.61835 17.3995 9.75005 17.0815 9.75005 16.75C9.75005 16.4185 9.61835 16.1005 9.38393 15.8661C9.14951 15.6317 8.83157 15.5 8.50005 15.5C8.16853 15.5 7.85058 15.6317 7.61616 15.8661C7.38174 16.1005 7.25005 16.4185 7.25005 16.75C7.25005 17.0815 7.38174 17.3995 7.61616 17.6339C7.85058 17.8683 8.16853 18 8.50005 18ZM13.25 13.25C13.25 13.5815 13.1183 13.8995 12.8839 14.1339C12.6495 14.3683 12.3316 14.5 12 14.5C11.6685 14.5 11.3506 14.3683 11.1162 14.1339C10.8817 13.8995 10.75 13.5815 10.75 13.25C10.75 12.9185 10.8817 12.6005 11.1162 12.3661C11.3506 12.1317 11.6685 12 12 12C12.3316 12 12.6495 12.1317 12.8839 12.3661C13.1183 12.6005 13.25 12.9185 13.25 13.25ZM12 18C12.3316 18 12.6495 17.8683 12.8839 17.6339C13.1183 17.3995 13.25 17.0815 13.25 16.75C13.25 16.4185 13.1183 16.1005 12.8839 15.8661C12.6495 15.6317 12.3316 15.5 12 15.5C11.6685 15.5 11.3506 15.6317 11.1162 15.8661C10.8817 16.1005 10.75 16.4185 10.75 16.75C10.75 17.0815 10.8817 17.3995 11.1162 17.6339C11.3506 17.8683 11.6685 18 12 18ZM16.75 13.25C16.75 13.5815 16.6184 13.8995 16.3839 14.1339C16.1495 14.3683 15.8316 14.5 15.5 14.5C15.1685 14.5 14.8506 14.3683 14.6162 14.1339C14.3817 13.8995 14.25 13.5815 14.25 13.25C14.25 12.9185 14.3817 12.6005 14.6162 12.3661C14.8506 12.1317 15.1685 12 15.5 12C15.8316 12 16.1495 12.1317 16.3839 12.3661C16.6184 12.6005 16.75 12.9185 16.75 13.25Z" fill="#008ECC"/>
<path fill-rule="evenodd" clip-rule="evenodd" d="M7.70593 4C7.9025 4 8.09102 4.07809 8.23002 4.21709C8.36902 4.35608 8.4471 4.5446 8.4471 4.74118V5.48235H14.8706V4.74118C14.8706 4.5446 14.9487 4.35608 15.0877 4.21709C15.2267 4.07809 15.4152 4 15.6118 4C15.8084 4 15.9969 4.07809 16.1359 4.21709C16.2749 4.35608 16.353 4.5446 16.353 4.74118V5.49026C16.5032 5.49421 16.6432 5.50146 16.773 5.512C17.1485 5.54165 17.5003 5.60885 17.8334 5.77882C18.3448 6.03939 18.7607 6.45522 19.0212 6.96668C19.1912 7.29972 19.2584 7.65153 19.288 8.02706C19.3177 8.38776 19.3177 8.82753 19.3177 9.35624V16.9261C19.3177 17.4548 19.3177 17.8946 19.288 18.2553C19.2584 18.6308 19.1912 18.9826 19.0212 19.3157C18.7609 19.827 18.3454 20.2428 17.8344 20.5035C17.5003 20.6735 17.1485 20.7407 16.773 20.7704C16.4123 20.8 15.9725 20.8 15.4448 20.8H7.87393C7.34522 20.8 6.90546 20.8 6.54475 20.7704C6.16922 20.7407 5.81741 20.6735 5.48438 20.5035C4.97321 20.2435 4.55742 19.8284 4.29652 19.3176C4.12654 18.9836 4.05934 18.6318 4.02969 18.2563C4.00005 17.8956 4.00005 17.4558 4.00005 16.9281V9.35624C4.00005 8.82753 4.00005 8.38776 4.02969 8.02706C4.05934 7.65153 4.12654 7.29972 4.29652 6.96668C4.55709 6.45522 4.97291 6.03939 5.48438 5.77882C5.81741 5.60885 6.16922 5.54165 6.54475 5.512C6.67454 5.50146 6.81454 5.49421 6.96475 5.49026V4.74118C6.96475 4.64384 6.98392 4.54746 7.02117 4.45754C7.05842 4.36762 7.11301 4.28591 7.18184 4.21709C7.25066 4.14826 7.33237 4.09367 7.42229 4.05642C7.51222 4.01917 7.6086 4 7.70593 4ZM17.8353 10.9176H5.4824V16.8965C5.4824 17.4617 5.4824 17.8422 5.5071 18.1337C5.52983 18.4184 5.57134 18.5537 5.6168 18.6427C5.73539 18.8759 5.92414 19.0647 6.15736 19.1832C6.2463 19.2287 6.38169 19.2702 6.66532 19.2929C6.95783 19.3167 7.33732 19.3176 7.90357 19.3176H15.4142C15.9794 19.3176 16.3599 19.3176 16.6514 19.2929C16.936 19.2702 17.0714 19.2287 17.1604 19.1832C17.3932 19.0647 17.5824 18.8755 17.7009 18.6427C17.7464 18.5537 17.7879 18.4184 17.8106 18.1337C17.8344 17.8422 17.8353 17.4617 17.8353 16.8965V10.9176ZM10.1765 7.70588C9.97994 7.70588 9.79142 7.78397 9.65243 7.92297C9.51343 8.06196 9.43534 8.25049 9.43534 8.44706C9.43534 8.64363 9.51343 8.83215 9.65243 8.97115C9.79142 9.11015 9.97994 9.18823 10.1765 9.18823H13.1412C13.3378 9.18823 13.5263 9.11015 13.6653 8.97115C13.8043 8.83215 13.8824 8.64363 13.8824 8.44706C13.8824 8.25049 13.8043 8.06196 13.6653 7.92297C13.5263 7.78397 13.3378 7.70588 13.1412 7.70588H10.1765Z" fill="#008ECC"/>
</svg>
