<svg width="24" height="25" viewBox="0 0 24 25" fill="none" xmlns="http://www.w3.org/2000/svg">
<path fill-rule="evenodd" clip-rule="evenodd" d="M9.05263 5C9.5177 5 9.89472 5.37702 9.89472 5.84209V6.68419H10.7368C11.2019 6.68419 11.5789 7.06121 11.5789 7.52628C11.5789 7.99136 11.2019 8.36838 10.7368 8.36838H9.86448C9.74405 10.0352 9.26913 11.5589 8.53336 12.7361C7.68274 14.0971 6.39983 15.1051 4.84216 15.1051C4.37708 15.1051 4.00006 14.7281 4.00006 14.263C4.00006 13.798 4.37708 13.4209 4.84216 13.4209C5.6095 13.4209 6.43183 12.9208 7.10519 11.8435C7.66059 10.9549 8.05845 9.7471 8.1752 8.36838H4.84216C4.37708 8.36838 4.00006 7.99136 4.00006 7.52628C4.00006 7.06121 4.37708 6.68419 4.84216 6.68419H8.21053V5.84209C8.21053 5.37702 8.58755 5 9.05263 5Z" fill="#008ECC"/>
<path fill-rule="evenodd" clip-rule="evenodd" d="M5.68426 10.0526C6.14933 10.0526 6.52635 10.4296 6.52635 10.8946C6.52635 11.378 6.86484 11.9732 7.75346 12.5038C8.62231 13.0227 9.88499 13.3853 11.347 13.4212C11.8119 13.4326 12.1795 13.8188 12.1681 14.2837C12.1567 14.7486 11.7706 15.1163 11.3056 15.1049C9.61142 15.0633 8.05309 14.6444 6.88995 13.9498C5.74661 13.267 4.84216 12.2167 4.84216 10.8946C4.84216 10.4296 5.21918 10.0526 5.68426 10.0526ZM14.9473 11.7367C15.2801 11.7367 15.5817 11.9327 15.7168 12.2368L19.0852 19.8157C19.2741 20.2407 19.0827 20.7383 18.6577 20.9272C18.2327 21.1161 17.735 20.9247 17.5462 20.4997L17.0199 19.3156H12.8747L12.3484 20.4997C12.1595 20.9247 11.6619 21.1161 11.2369 20.9272C10.8119 20.7383 10.6205 20.2407 10.8094 19.8157L14.1778 12.2368C14.3129 11.9327 14.6145 11.7367 14.9473 11.7367ZM13.6232 17.6314H16.2714L14.9473 14.6523L13.6232 17.6314Z" fill="#008ECC"/>
</svg>
