<svg width="15" height="12" viewBox="0 0 15 12" fill="none" xmlns="http://www.w3.org/2000/svg">
<path d="M13.2785 2.99194C13.2785 3.12866 13.2785 3.23804 13.2785 3.37476C13.2785 7.17554 10.4074 11.5232 5.13007 11.5232C3.48944 11.5232 1.98553 11.0583 0.727722 10.238C0.946472 10.2654 1.16522 10.2927 1.41132 10.2927C2.75116 10.2927 3.98163 9.82788 4.966 9.06226C3.70819 9.03491 2.64178 8.2146 2.28632 7.06616C2.47772 7.09351 2.64178 7.12085 2.83319 7.12085C3.07928 7.12085 3.35272 7.06616 3.57147 7.01147C2.25897 6.73804 1.2746 5.5896 1.2746 4.19507V4.16772C1.65741 4.38647 2.12225 4.49585 2.5871 4.52319C1.79413 4.00366 1.30194 3.12866 1.30194 2.14429C1.30194 1.59741 1.43866 1.10522 1.68475 0.695068C3.10663 2.41772 5.23944 3.56616 7.61835 3.70288C7.56366 3.48413 7.53632 3.26538 7.53632 3.04663C7.53632 1.46069 8.82147 0.175537 10.4074 0.175537C11.2277 0.175537 11.966 0.503662 12.5129 1.07788C13.1418 0.941162 13.7707 0.695068 14.3176 0.366943C14.0988 1.05054 13.6613 1.59741 13.0598 1.95288C13.634 1.89819 14.2082 1.73413 14.7004 1.51538C14.3176 2.0896 13.8254 2.58179 13.2785 2.99194Z" fill="white"/>
</svg>
